<?xml version="1.0" standalone="yes"?>
<svg xmlns="http://www.w3.org/2000/svg" width="256" height="256">
<path style="fill:#000000; stroke:none;" d="M0 0L0 256L256 256L256 0L0 0z"/>
<path style="fill:#d08c23; stroke:none;" d="M126 82C127.248 82.6848 127.548 82.7488 129 83C127.752 82.3152 127.452 82.2512 126 82z"/>
<path style="fill:#8c5c19; stroke:none;" d="M129 82L130 83L129 82z"/>
<path style="fill:#553608; stroke:none;" d="M124 83L125 84L124 83z"/>
<path style="fill:#f9a51a; stroke:none;" d="M131 83C129.843 83.038 128.231 82.8748 127.104 83.3179C120.898 85.7572 128.193 93.2984 130.682 86.8966C131.123 85.7635 130.962 84.1633 131 83z"/>
<path style="fill:#da9013; stroke:none;" d="M131 84L131 88C131.71 86.2405 131.71 85.7595 131 84z"/>
<path style="fill:#614009; stroke:none;" d="M123 85L123 88C123.696 86.4463 123.696 86.5537 123 85z"/>
<path style="fill:#291905; stroke:none;" d="M132 85L132 88C132.696 86.4463 132.696 86.5537 132 85z"/>
<path style="fill:#ae771b; stroke:none;" d="M124 88L125 89L124 88z"/>
<path style="fill:#986411; stroke:none;" d="M131 88L132 89L131 88z"/>
<path style="fill:#aa700f; stroke:none;" d="M130 89L131 90L130 89z"/>
<path style="fill:#656865; stroke:none;" d="M126 90L126 96C126.951 93.7147 126.951 92.2853 126 90z"/>
<path style="fill:#deb867; stroke:none;" d="M127.667 90.3333C127.222 90.7778 128.278 90.7222 128.333 90.6667C128.778 90.2221 127.722 90.2778 127.667 90.3333z"/>
<path style="fill:#6a4c17; stroke:none;" d="M129 90L130 91L129 90z"/>
<path style="fill:#c5bdc9; stroke:none;" d="M127 91L127 96L129 96L129 91L127 91z"/>
<path style="fill:#1f1f1f; stroke:none;" d="M129 91C129.064 93.9934 128.946 95.3456 132 96L129 91z"/>
<path style="fill:#597c36; stroke:none;" d="M97 94C98.2484 94.6848 98.5484 94.7488 100 95C98.7517 94.3152 98.4515 94.2512 97 94z"/>
<path style="fill:#26391c; stroke:none;" d="M155 94L156 95L155 94z"/>
<path style="fill:#5b7c3a; stroke:none;" d="M156 94C157.248 94.6848 157.548 94.7488 159 95C157.752 94.3152 157.452 94.2512 156 94z"/>
<path style="fill:#364726; stroke:none;" d="M95 95L96 96L95 95z"/>
<path style="fill:#739f50; stroke:none;" d="M96.6034 96.0463C93.4475 98.4373 97.2145 103.365 100.397 100.954C103.553 98.5627 99.7855 93.6354 96.6034 96.0463z"/>
<path style="fill:#3f5829; stroke:none;" d="M101 95L102 96L101 95z"/>
<path style="fill:#12233e; stroke:none;" d="M124.667 95.3333C124.222 95.7778 125.278 95.7222 125.333 95.6667C125.778 95.2222 124.722 95.2778 124.667 95.3333z"/>
<path style="fill:#73a04c; stroke:none;" d="M154 95C154.038 96.1604 153.876 97.7664 154.318 98.8966C156.822 105.303 164.303 97.8221 157.897 95.3179C156.766 94.8761 155.16 95.0381 154 95z"/>
<path style="fill:#2d411e; stroke:none;" d="M102 96L103 97L102 96z"/>
<path style="fill:#274b84; stroke:none;" d="M120 96L121 97L120 96z"/>
<path style="fill:#4689f2; stroke:none;" d="M137 148C138.866 147.702 145.595 144.714 141.377 142.171C135.3 138.506 132.962 151.703 128 151.704C123.498 151.704 123.618 146.548 120.686 144.367C117.237 141.802 111.412 143.651 108.711 140.593C105.317 136.748 111.188 129.251 109.417 124.09C108.615 121.753 106.188 119.717 107.326 117.059C109.156 112.786 114.595 115.142 117.981 113.566C122.5 111.46 123.418 107.287 125 103C122.121 102.04 120.289 102.846 121 100L114 102C118.615 97.8517 124.092 98.0006 130 98L130 96C120.011 96.0066 111.203 98.4131 104.185 106.04C93.8419 117.281 93.329 141.421 106.174 151.312C113.245 156.757 135.583 160.323 137 148z"/>
<path style="fill:#468af0; stroke:none;" d="M130 96L130 98L137 99C131.02 100.012 124.719 97.1816 120 102C123.315 102.841 128.012 103.372 130.688 105.595C133.708 108.105 134.023 111.942 138.019 113.678C141.13 115.03 145.866 112.698 147.843 116.191C149.63 119.348 146.579 122.84 146.147 126C145.368 131.709 152.565 141.57 143 142C141.962 145.591 140.591 146.962 137 148L136 153C154.634 149.395 161.103 121.845 152.066 107.04C147.907 100.229 137.6 96.4841 130 96z"/>
<path style="fill:#1e3f6f; stroke:none;" d="M135 96L136 97L135 96z"/>
<path style="fill:#618642; stroke:none;" d="M153 96L153 101C153.83 98.9695 153.83 98.0305 153 96z"/>
<path style="fill:#5a793a; stroke:none;" d="M94 97L94 100C94.6961 98.4463 94.6961 98.5537 94 97z"/>
<path style="fill:#5b7b3f; stroke:none;" d="M102 97L102 101C102.71 99.2405 102.71 98.7595 102 97z"/>
<path style="fill:#0d1b43; stroke:none;" d="M116 97L117 98L116 97z"/>
<path style="fill:#3e6dbc; stroke:none;" d="M136 97C137.248 97.6848 137.548 97.7488 139 98C137.752 97.3152 137.452 97.2512 136 97z"/>
<path style="fill:#3c5329; stroke:none;" d="M161 97L161 100C161.696 98.4463 161.696 98.5537 161 97z"/>
<path style="fill:#223b66; stroke:none;" d="M114 98L115 99L114 98z"/>
<path style="fill:#5b99f8; stroke:none;" d="M114 102C122.416 100.053 128.366 99.3186 137 100C131.602 96.3125 118.112 96.4165 114 102z"/>
<path style="fill:#3163b1; stroke:none;" d="M140 98L141 99L140 98z"/>
<path style="fill:#1a2e55; stroke:none;" d="M141 98L142 99L141 98z"/>
<path style="fill:#284878; stroke:none;" d="M112 99L113 100L112 99z"/>
<path style="fill:#1b3157; stroke:none;" d="M143 99L144 100L143 99z"/>
<path style="fill:#162c4e; stroke:none;" d="M110 100L111 101L110 100z"/>
<path style="fill:#31609f; stroke:none;" d="M144 100L145 101L144 100z"/>
<path style="fill:#395127; stroke:none;" d="M95 101L96 102L95 101z"/>
<path style="fill:#bdbec7; stroke:none;" d="M101 101C102.104 103.357 102.956 104.376 105 106L106 105C104.376 102.956 103.357 102.104 101 101z"/>
<path style="fill:#57575a; stroke:none;" d="M103 101L104 102L103 101z"/>
<path style="fill:#294f88; stroke:none;" d="M109 101L110 102L109 101z"/>
<path style="fill:#224167; stroke:none;" d="M146 101L147 102L146 101z"/>
<path style="fill:#7c7e83; stroke:none;" d="M152 101L153 102L152 101z"/>
<path style="fill:#c5ccc6; stroke:none;" d="M153 101L150 105L151 106C152.848 104.22 153.566 103.509 153 101z"/>
<path style="fill:#a4aca6; stroke:none;" d="M154.333 101.667C154.278 101.722 154.222 102.778 154.667 102.333C154.722 102.278 154.778 101.222 154.333 101.667z"/>
<path style="fill:#58793d; stroke:none;" d="M97 102C98.506 102.683 99.3148 102.826 101 103C99.494 102.317 98.6852 102.174 97 102z"/>
<path style="fill:#595e5e; stroke:none;" d="M104 102L105 103L104 102z"/>
<path style="fill:#569bf8; stroke:none;" d="M99 120C101.436 117.305 102.768 113.944 104.928 111.004C107.336 107.728 110.471 105.149 113 102C105.446 104.568 99.8554 112.116 99 120z"/>
<path style="fill:#32579b; stroke:none;" d="M147 102L148 103L147 102z"/>
<path style="fill:#7b7b7e; stroke:none;" d="M151 102L152 103L151 102z"/>
<path style="fill:#587239; stroke:none;" d="M155 102C156.506 102.683 157.315 102.826 159 103C157.494 102.317 156.685 102.174 155 102z"/>
<path style="fill:#4c4e51; stroke:none;" d="M101 103L102 104L101 103z"/>
<path style="fill:#646460; stroke:none;" d="M105 103L106 104L105 103z"/>
<path style="fill:#152a4a; stroke:none;" d="M106 103L107 104L106 103z"/>
<path style="fill:#7c7e7c; stroke:none;" d="M150 103L151 104L150 103z"/>
<path style="fill:#353539; stroke:none;" d="M154 103L155 104L154 103z"/>
<path style="fill:#4e5153; stroke:none;" d="M102 104L103 105L102 104z"/>
<path style="fill:#a9c3ea; stroke:none;" d="M124 104C126.332 104.985 128.457 104.981 131 105C128.668 104.015 126.543 104.019 124 104z"/>
<path style="fill:#373737; stroke:none;" d="M153 104L154 105L153 104z"/>
<path style="fill:#4f5351; stroke:none;" d="M103 105L104 106L103 105z"/>
<path style="fill:#e7e6e9; stroke:none;" d="M124 105L123 111L132 111C129.971 108.586 129.13 107.918 126 108L127 105L124 105z"/>
<path style="fill:#dadbdd; stroke:none;" d="M126 108C128.296 108.366 129.892 108.979 132 110L132 105C128.993 105.221 127.635 105.455 126 108z"/>
<path style="fill:#9ec0ec; stroke:none;" d="M123.333 106.667C123.278 106.722 123.222 107.778 123.667 107.333C123.722 107.278 123.778 106.222 123.333 106.667z"/>
<path style="fill:#7ca9e6; stroke:none;" d="M132.333 106.667C132.278 106.722 132.222 107.778 132.667 107.333C132.722 107.278 132.778 106.222 132.333 106.667z"/>
<path style="fill:#acbde2; stroke:none;" d="M132 108L132 111C132.696 109.446 132.696 109.554 132 108z"/>
<path style="fill:#204287; stroke:none;" d="M153 108L154 109L153 108z"/>
<path style="fill:#284f88; stroke:none;" d="M101 109L102 110L101 109z"/>
<path style="fill:#377be0; stroke:none;" d="M153 109C154.338 114.783 156.354 119.938 155.91 126C154.751 141.808 142.041 153.242 127 155.675C122.006 156.483 117.003 155.103 112 155C116.548 158.002 121.657 158.285 127 157.91C144.243 156.703 157.794 143.531 157.996 126C158.066 119.917 157.568 113.406 153 109z"/>
<path style="fill:#142c53; stroke:none;" d="M154 109L155 110L154 109z"/>
<path style="fill:#1b2f4a; stroke:none;" d="M100 110L101 111L100 110z"/>
<path style="fill:#bbd2f0; stroke:none;" d="M121.667 111.333C121.222 111.778 122.278 111.722 122.333 111.667C122.778 111.222 121.722 111.278 121.667 111.333z"/>
<path style="fill:#f6f6f8; stroke:none;" d="M128 140C134.8 146.142 141.741 142.616 144 134C142.247 135.33 141.33 136.247 140 138L136 134C132.875 135.787 125.718 141.638 122.114 140.677C119.06 139.864 115.821 135.692 113 134C116.732 130 118.721 125.282 122 121L120.945 118.846C119.057 110.588 127.873 117.849 131 119L132 113C135.771 114.763 138.485 117.797 142 120L143 119C140.618 115.701 138.005 113.06 134 111.804C130.884 110.827 127.203 110.752 124 111.329C112.556 113.391 107.722 126.996 112.769 136.91C116.281 143.811 123.043 146.486 128 140z"/>
<path style="fill:#75a0db; stroke:none;" d="M133.667 111.333C133.222 111.778 134.278 111.722 134.333 111.667C134.778 111.222 133.722 111.278 133.667 111.333z"/>
<path style="fill:#27456f; stroke:none;" d="M99 112L100 113L99 112z"/>
<path style="fill:#92bbef; stroke:none;" d="M119 112L120 113L119 112z"/>
<path style="fill:#a4c6ef; stroke:none;" d="M109.667 113.333C109.222 113.778 110.278 113.722 110.333 113.667C110.778 113.222 109.722 113.278 109.667 113.333z"/>
<path style="fill:#ffffff; stroke:none;" d="M127 118C126.552 117.116 126.249 115.854 125.39 115.177C120.261 111.13 117.576 119.462 123.859 119.272C124.891 119.241 126.187 118.366 127 118z"/>
<path style="fill:#fdffff; stroke:none;" d="M132 113C129.494 120.135 139.459 129.972 144 121C140.004 118.214 136.721 114.34 132 113z"/>
<path style="fill:#b1c9ef; stroke:none;" d="M144 113C145.248 113.685 145.548 113.749 147 114C145.752 113.315 145.452 113.251 144 113z"/>
<path style="fill:#1c59b5; stroke:none;" d="M156 113L157 117C157.393 115.076 157.146 114.64 156 113z"/>
<path style="fill:#24406c; stroke:none;" d="M98 114L99 115L98 114z"/>
<path style="fill:#e6e8ea; stroke:none;" d="M112 123C112.824 119.95 114.312 117.672 116 115C113.903 114.507 111.454 113.691 109.343 114.618C103.722 117.086 108.431 121.964 112 123z"/>
<path style="fill:#e5e7e9; stroke:none;" d="M140 115L145 124C152.195 118.465 147.824 113.16 140 115z"/>
<path style="fill:#8eade4; stroke:none;" d="M107 115L108 116L107 115z"/>
<path style="fill:#0e2347; stroke:none;" d="M97 116L98 117L97 116z"/>
<path style="fill:#3f6dbd; stroke:none;" d="M97.3333 117.667C97.2778 117.722 97.2222 118.778 97.6667 118.333C97.7223 118.278 97.7777 117.222 97.3333 117.667z"/>
<path style="fill:#1f4e98; stroke:none;" d="M158.333 117.667C158.278 117.722 158.222 118.778 158.667 118.333C158.722 118.278 158.778 117.222 158.333 117.667z"/>
<path style="fill:#b4d5f9; stroke:none;" d="M126 118C127.248 118.685 127.548 118.749 129 119C127.752 118.315 127.452 118.251 126 118z"/>
<path style="fill:#478bf0; stroke:none;" d="M124.044 119.743C113.362 124.036 120.89 140.747 131.956 136.258C142.641 131.923 134.538 115.526 124.044 119.743z"/>
<path style="fill:#8eace3; stroke:none;" d="M131 119L132 120L131 119z"/>
<path style="fill:#2265ce; stroke:none;" d="M158 119C158 123.672 158.305 128.445 157.073 133C152.195 151.03 136.172 157.998 119 158C123.261 160.048 127.412 159.768 132 159.13C150.044 156.622 166.042 137.643 158 119z"/>
<path style="fill:#4381e1; stroke:none;" d="M96 120L96 132C97.5124 128.396 97.5124 123.604 96 120z"/>
<path style="fill:#88b3ea; stroke:none;" d="M106 120L107 121L106 120z"/>
<path style="fill:#a4c6f0; stroke:none;" d="M133 120L134 121L133 120z"/>
<path style="fill:#10336c; stroke:none;" d="M159 120L159 123C159.696 121.446 159.696 121.554 159 120z"/>
<path style="fill:#90afdf; stroke:none;" d="M134 121L135 122L134 121z"/>
<path style="fill:#a9beec; stroke:none;" d="M135 122L136 123L135 122z"/>
<path style="fill:#50131c; stroke:none;" d="M85 123C86.2484 123.685 86.5484 123.749 88 124C86.7517 123.315 86.4515 123.251 85 123z"/>
<path style="fill:#96bbea; stroke:none;" d="M110.333 123.667C110.278 123.722 110.222 124.778 110.667 124.333C110.722 124.278 110.778 123.222 110.333 123.667z"/>
<path style="fill:#b4cbf2; stroke:none;" d="M119 123L120 124L119 123z"/>
<path style="fill:#f2f2f3; stroke:none;" d="M138 126C139.201 129.727 141.482 131.414 145 133C142.731 128.909 142.731 127.091 145 123L138 126z"/>
<path style="fill:#1f51a9; stroke:none;" d="M159 123L159 126C159.696 124.446 159.696 124.554 159 123z"/>
<path style="fill:#51141c; stroke:none;" d="M168 123C169.248 123.685 169.549 123.749 171 124C169.752 123.315 169.452 123.251 168 123z"/>
<path style="fill:#4d131a; stroke:none;" d="M83 124L84 125L83 124z"/>
<path style="fill:#e43950; stroke:none;" d="M83 131C84.1605 130.962 85.7664 131.124 86.8966 130.682C93.3032 128.178 85.8221 120.697 83.3179 127.103C82.8761 128.234 83.0381 129.84 83 131z"/>
<path style="fill:#12243d; stroke:none;" d="M95.3333 124.667C95.2778 124.722 95.2222 125.778 95.6667 125.333C95.7222 125.278 95.7778 124.222 95.3333 124.667z"/>
<path style="fill:#fcfffc; stroke:none;" d="M144 124C141.681 127.584 141.735 129.179 145 132C144.993 129.165 145.098 126.613 144 124z"/>
<path style="fill:#9fc5ee; stroke:none;" d="M145 124L145 133C146.256 130.006 146.256 126.994 145 124z"/>
<path style="fill:#5c1621; stroke:none;" d="M166 124L167 125L166 124z"/>
<path style="fill:#e53a50; stroke:none;" d="M166 131C166.845 130.972 168.209 131.069 169.102 130.852C176.944 128.948 168.666 120.332 166.029 127.103C165.603 128.197 165.944 129.906 166 131z"/>
<path style="fill:#c4def5; stroke:none;" d="M110 125L110 133C111.161 130.23 111.161 127.77 110 125z"/>
<path style="fill:#bfd2f4; stroke:none;" d="M137 125L137 130C137.83 127.97 137.83 127.03 137 125z"/>
<path style="fill:#ad2d40; stroke:none;" d="M82 126L82 130C82.7102 128.241 82.7102 127.759 82 126z"/>
<path style="fill:#616461; stroke:none;" d="M90 126C92.0521 126.874 93.7472 126.953 96 127C93.9479 126.126 92.2528 126.047 90 126z"/>
<path style="fill:#93b8ec; stroke:none;" d="M118 126L118 130C118.71 128.241 118.71 127.759 118 126z"/>
<path style="fill:#625f5f; stroke:none;" d="M160 126C161.769 126.779 163.036 126.912 165 127C163.231 126.221 161.964 126.088 160 126z"/>
<path style="fill:#8f2d39; stroke:none;" d="M173 126L173 129C173.696 127.446 173.696 127.554 173 126z"/>
<path style="fill:#d77f86; stroke:none;" d="M90.3333 127.667C90.2778 127.722 90.2222 128.778 90.6667 128.333C90.7222 128.278 90.7778 127.222 90.3333 127.667z"/>
<path style="fill:#bec7c1; stroke:none;" d="M91 127L91 129L96 129L96 127L91 127z"/>
<path style="fill:#bfbcc3; stroke:none;" d="M160 127L160 129L165 129L165 127L160 127z"/>
<path style="fill:#d06477; stroke:none;" d="M165.333 127.667C165.278 127.722 165.222 128.778 165.667 128.333C165.722 128.278 165.778 127.222 165.333 127.667z"/>
<path style="fill:#1e2020; stroke:none;" d="M90 129C91.8084 129.967 93.4176 130.698 95 132C96.2347 128.725 92.4989 129.041 90 129z"/>
<path style="fill:#ffffff; stroke:none;" d="M117 129L113 133C116.377 137.277 122.933 145.346 127 138C122.685 135.754 120.315 132.391 117 129M138 129C136.275 132.834 136.608 134.567 139 138L144 134C142.164 131.553 140.763 130.299 138 129z"/>
<path style="fill:#1d1d20; stroke:none;" d="M160 129C161.769 129.779 163.036 129.912 165 130C163.231 129.221 161.964 129.088 160 129z"/>
<path style="fill:#872d3b; stroke:none;" d="M165 129L166 130L165 129z"/>
<path style="fill:#4d131d; stroke:none;" d="M173 129L174 130L173 129z"/>
<path style="fill:#992535; stroke:none;" d="M89 130L90 131L89 130z"/>
<path style="fill:#81202e; stroke:none;" d="M172 130L173 131L172 130z"/>
<path style="fill:#c03346; stroke:none;" d="M84 131C85.769 131.779 87.0359 131.912 89 132C87.231 131.221 85.9641 131.088 84 131z"/>
<path style="fill:#bd3449; stroke:none;" d="M167 131C168.506 131.683 169.315 131.826 171 132C169.494 131.317 168.685 131.174 167 131z"/>
<path style="fill:#7b1e2d; stroke:none;" d="M171 131L172 132L171 131z"/>
<path style="fill:#356ab8; stroke:none;" d="M96 132L96 135C96.6961 133.446 96.6961 133.554 96 132z"/>
<path style="fill:#a3c0f1; stroke:none;" d="M119 132L120 133L119 132z"/>
<path style="fill:#143776; stroke:none;" d="M159 132L159 135C159.696 133.446 159.696 133.554 159 132z"/>
<path style="fill:#e6e9e8; stroke:none;" d="M116 141C114.115 138.371 112.747 136.16 112 133C108.468 134.028 103.913 138.897 109.394 141.382C111.469 142.323 113.935 141.486 116 141z"/>
<path style="fill:#e7e6e9; stroke:none;" d="M144 133C143.299 135.811 142.059 138.304 141 141C148.675 143.027 149.341 137.236 144 133z"/>
<path style="fill:#d6d9dd; stroke:none;" d="M145 133C146.363 135.342 147.732 136.492 150 138C148.676 135.313 147.687 134.324 145 133z"/>
<path style="fill:#1b3e6b; stroke:none;" d="M96 135L97 136L96 135z"/>
<path style="fill:#5695f4; stroke:none;" d="M99 135C99.5051 139.931 101.221 143.76 105 147C103.743 142.646 101.706 138.635 99 135z"/>
<path style="fill:#a2c3f2; stroke:none;" d="M123 136L124 137L123 136z"/>
<path style="fill:#b4cdf1; stroke:none;" d="M132 136L133 137L132 136z"/>
<path style="fill:#27487d; stroke:none;" d="M97.3333 137.667C97.2778 137.722 97.2222 138.778 97.6667 138.333C97.7222 138.278 97.7778 137.222 97.3333 137.667z"/>
<path style="fill:#a1b7e7; stroke:none;" d="M125 137C126.769 137.779 128.036 137.912 130 138C128.231 137.221 126.964 137.088 125 137z"/>
<path style="fill:#164485; stroke:none;" d="M158 137L159 138L158 137z"/>
<path style="fill:#3260a3; stroke:none;" d="M98 140L99 141L98 140z"/>
<path style="fill:#fdfefe; stroke:none;" d="M128 140L124 145C127.31 145.971 129.69 145.971 133 145C131.451 142.864 130.136 141.549 128 140z"/>
<path style="fill:#133b73; stroke:none;" d="M157 140L158 141L157 140z"/>
<path style="fill:#192e4a; stroke:none;" d="M98 141L99 142L98 141z"/>
<path style="fill:#6499db; stroke:none;" d="M114.667 141.333C114.222 141.778 115.278 141.722 115.333 141.667C115.778 141.222 114.722 141.278 114.667 141.333z"/>
<path style="fill:#abcff0; stroke:none;" d="M116 141L117 142L116 141z"/>
<path style="fill:#9bb8e6; stroke:none;" d="M147 141L148 142L147 141z"/>
<path style="fill:#3663a3; stroke:none;" d="M99 142L100 143L99 142z"/>
<path style="fill:#a9c6e9; stroke:none;" d="M109 142C110.248 142.685 110.548 142.749 112 143C110.752 142.315 110.452 142.251 109 142z"/>
<path style="fill:#93b8ed; stroke:none;" d="M117 142L118 143L117 142z"/>
<path style="fill:#b1cff0; stroke:none;" d="M144 142C145.248 142.685 145.548 142.749 147 143C145.752 142.315 145.452 142.251 144 142z"/>
<path style="fill:#173b79; stroke:none;" d="M156 142L157 143L156 142z"/>
<path style="fill:#1d3050; stroke:none;" d="M99 143L100 144L99 143z"/>
<path style="fill:#315791; stroke:none;" d="M100 144L101 145L100 144z"/>
<path style="fill:#17365f; stroke:none;" d="M155 144L156 145L155 144z"/>
<path style="fill:#dcdedf; stroke:none;" d="M123 145L124 151L132 151L132 146C128.922 145.936 126.025 145.562 123 145z"/>
<path style="fill:#b2caef; stroke:none;" d="M132 145L132 148C132.696 146.446 132.696 146.554 132 145z"/>
<path style="fill:#1b3861; stroke:none;" d="M101 146L102 147L101 146z"/>
<path style="fill:#264e86; stroke:none;" d="M102 147L103 148L102 147z"/>
<path style="fill:#14305e; stroke:none;" d="M153 147L154 148L153 147z"/>
<path style="fill:#3261af; stroke:none;" d="M103 148L104 149L103 148z"/>
<path style="fill:#8bafef; stroke:none;" d="M123.333 148.667C123.278 148.722 123.222 149.778 123.667 149.333C123.722 149.278 123.778 148.222 123.333 148.667z"/>
<path style="fill:#709be9; stroke:none;" d="M132.333 148.667C132.278 148.722 132.222 149.778 132.667 149.333C132.722 149.278 132.778 148.222 132.333 148.667z"/>
<path style="fill:#173c76; stroke:none;" d="M152 148L153 149L152 148z"/>
<path style="fill:#7d8080; stroke:none;" d="M103 150L104 151L103 150z"/>
<path style="fill:#c5c6ce; stroke:none;" d="M104 150L101 154L102 155C103.753 153.67 104.67 152.753 106 151L104 150z"/>
<path style="fill:#6a8dcd; stroke:none;" d="M150 150L151 151L150 150z"/>
<path style="fill:#c6c9c5; stroke:none;" d="M151 150L150 151C151.33 152.753 152.247 153.67 154 155L155 154C153.67 152.247 152.753 151.33 151 150z"/>
<path style="fill:#606460; stroke:none;" d="M152 150L153 151L152 150z"/>
<path style="fill:#797c7e; stroke:none;" d="M102 151L103 152L102 151z"/>
<path style="fill:#c9d4e7; stroke:none;" d="M124 151C126.613 152.098 129.164 151.993 132 152C129.387 150.902 126.835 151.007 124 151z"/>
<path style="fill:#59605d; stroke:none;" d="M153 151L154 152L153 151z"/>
<path style="fill:#818187; stroke:none;" d="M101 152L102 153L101 152z"/>
<path style="fill:#1e4d90; stroke:none;" d="M107 152L108 153L107 152z"/>
<path style="fill:#14386b; stroke:none;" d="M148 152L149 153L148 152z"/>
<path style="fill:#4d4b4d; stroke:none;" d="M150 152L151 153L150 152z"/>
<path style="fill:#5d5d62; stroke:none;" d="M154 152L155 153L154 152z"/>
<path style="fill:#5c7d41; stroke:none;" d="M96 153C97.769 153.779 99.0359 153.912 101 154C99.231 153.221 97.9641 153.088 96 153z"/>
<path style="fill:#363636; stroke:none;" d="M104 153L105 154L104 153z"/>
<path style="fill:#1b3e7c; stroke:none;" d="M108 153L109 154L108 153z"/>
<path style="fill:#306fd2; stroke:none;" d="M109 153C110.223 154.195 110.42 154.316 112 155C110.777 153.805 110.58 153.684 109 153z"/>
<path style="fill:#13305d; stroke:none;" d="M147 153L148 154L147 153z"/>
<path style="fill:#575457; stroke:none;" d="M151 153L152 154L151 153z"/>
<path style="fill:#658843; stroke:none;" d="M155 153C156.506 153.683 157.315 153.826 159 154C157.494 153.317 156.685 153.174 155 153z"/>
<path style="fill:#31461d; stroke:none;" d="M159 153L160 154L159 153z"/>
<path style="fill:#739f4c; stroke:none;" d="M95 154C95.264 162.041 101.736 162.041 102 154L95 154z"/>
<path style="fill:#323238; stroke:none;" d="M103 154L104 155L103 154z"/>
<path style="fill:#0e274b; stroke:none;" d="M109 154L110 155L109 154z"/>
<path style="fill:#58585a; stroke:none;" d="M152 154L153 155L152 154z"/>
<path style="fill:#71a14d; stroke:none;" d="M161 154C159.757 154.015 158.248 153.87 157.014 154.148C149.18 155.911 158.023 164.687 160.682 157.897C161.124 156.767 160.962 155.16 161 154z"/>
<path style="fill:#28391b; stroke:none;" d="M94 155L95 156L94 155z"/>
<path style="fill:#5b7538; stroke:none;" d="M102 155L102 159C102.71 157.241 102.71 156.759 102 155z"/>
<path style="fill:#1c3b6d; stroke:none;" d="M111 155L112 156L111 155z"/>
<path style="fill:#173259; stroke:none;" d="M144 155L145 156L144 155z"/>
<path style="fill:#537233; stroke:none;" d="M94 156L94 159C94.6961 157.446 94.6961 157.554 94 156z"/>
<path style="fill:#215eb8; stroke:none;" d="M113.667 156.333C113.222 156.778 114.278 156.722 114.333 156.667C114.778 156.222 113.722 156.278 113.667 156.333z"/>
<path style="fill:#183c77; stroke:none;" d="M142 156L143 157L142 156z"/>
<path style="fill:#385326; stroke:none;" d="M161 156L161 159C161.696 157.446 161.696 157.554 161 156z"/>
<path style="fill:#1758b3; stroke:none;" d="M115.667 157.333C115.222 157.778 116.278 157.722 116.333 157.667C116.778 157.222 115.722 157.278 115.667 157.333z"/>
<path style="fill:#12356e; stroke:none;" d="M140 157L141 158L140 157z"/>
<path style="fill:#1a4082; stroke:none;" d="M117.667 158.333C117.222 158.778 118.278 158.722 118.333 158.667C118.778 158.222 117.722 158.278 117.667 158.333z"/>
<path style="fill:#193b70; stroke:none;" d="M136.667 158.333C136.222 158.778 137.278 158.722 137.333 158.667C137.778 158.222 136.722 158.278 136.667 158.333z"/>
<path style="fill:#0f2d61; stroke:none;" d="M120.667 159.333C120.222 159.778 121.278 159.722 121.333 159.667C121.778 159.222 120.722 159.278 120.667 159.333z"/>
<path style="fill:#19458d; stroke:none;" d="M122.667 159.333C122.222 159.778 123.278 159.722 123.333 159.667C123.778 159.222 122.722 159.278 122.667 159.333z"/>
<path style="fill:#2453a6; stroke:none;" d="M129 159C130.248 159.685 130.548 159.749 132 160C130.752 159.315 130.452 159.251 129 159z"/>
<path style="fill:#143872; stroke:none;" d="M132 159C133.248 159.685 133.548 159.749 135 160C133.752 159.315 133.452 159.251 132 159z"/>
<path style="fill:#2e411e; stroke:none;" d="M153 159L154 160L153 159z"/>
<path style="fill:#636963; stroke:none;" d="M126 160L126 165C126.83 162.97 126.83 162.03 126 160z"/>
<path style="fill:#c7c3ca; stroke:none;" d="M127 160L127 165L129 165L129 160L127 160z"/>
<path style="fill:#1d1d17; stroke:none;" d="M129 160L129 165C129.83 162.969 129.83 162.03 129 160z"/>
<path style="fill:#384d26; stroke:none;" d="M154 160L155 161L154 160z"/>
<path style="fill:#30411e; stroke:none;" d="M97 161C98.2484 161.685 98.5484 161.749 100 162C98.7516 161.315 98.4516 161.251 97 161z"/>
<path style="fill:#2e401f; stroke:none;" d="M156 161C157.248 161.685 157.548 161.749 159 162C157.752 161.315 157.452 161.251 156 161z"/>
<path style="fill:#472f06; stroke:none;" d="M125 165L126 166L125 165z"/>
<path style="fill:#e5b153; stroke:none;" d="M126 165C127.248 165.685 127.548 165.749 129 166C127.752 165.315 127.452 165.251 126 165z"/>
<path style="fill:#ab781d; stroke:none;" d="M129 165L130 166L129 165z"/>
<path style="fill:#64430b; stroke:none;" d="M124 166L125 167L124 166z"/>
<path style="fill:#fda91b; stroke:none;" d="M131 166C129.844 166.038 128.23 165.874 127.104 166.318C121.157 168.662 128.338 175.843 130.682 169.896C131.126 168.77 130.962 167.156 131 166z"/>
<path style="fill:#d7911e; stroke:none;" d="M131 167L131 171C131.71 169.241 131.71 168.759 131 167z"/>
<path style="fill:#5f3e05; stroke:none;" d="M123.333 168.667C123.278 168.722 123.222 169.778 123.667 169.333C123.722 169.278 123.778 168.222 123.333 168.667z"/>
<path style="fill:#2a1b00; stroke:none;" d="M132.333 168.667C132.278 168.722 132.222 169.778 132.667 169.333C132.722 169.278 132.778 168.222 132.333 168.667z"/>
<path style="fill:#9e6d11; stroke:none;" d="M124 171L125 172L124 171z"/>
<path style="fill:#825b0e; stroke:none;" d="M131 171L132 172L131 171z"/>
<path style="fill:#ae7b11; stroke:none;" d="M125 172L126 173L125 172z"/>
<path style="fill:#8e650f; stroke:none;" d="M130 172L131 173L130 172z"/>
<path style="fill:#8a5a13; stroke:none;" d="M126 173C127.506 173.683 128.315 173.826 130 174C128.494 173.317 127.685 173.174 126 173z"/>
</svg>
